<?xml version="1.0" standalone="no"?>
<!DOCTYPE svg PUBLIC "-//W3C//DTD SVG 20010904//EN"
 "http://www.w3.org/TR/2001/REC-SVG-20010904/DTD/svg10.dtd">
<svg version="1.0" xmlns="http://www.w3.org/2000/svg"
 width="1280.000000pt" height="853.000000pt" viewBox="0 0 1280.000000 853.000000"
 preserveAspectRatio="xMidYMid meet">

<g transform="translate(0.000000,853.000000) scale(0.100000,-0.100000)"
fill="#000000" stroke="none">
<path d="M0 4265 l0 -4265 6400 0 6400 0 0 4265 0 4265 -6400 0 -6400 0 0
-4265z m5755 3178 c84 -71 221 -184 305 -253 228 -186 299 -250 258 -235 -16
6 -50 -36 -65 -81 -8 -22 -8 -295 0 -926 9 -740 8 -901 -3 -927 -7 -18 -71
-89 -142 -159 -188 -184 -172 -102 -165 -853 4 -453 3 -619 -6 -628 -6 -6 -44
-11 -88 -11 -79 0 -154 -24 -198 -64 -18 -16 -19 -3 -25 411 -6 402 -18 1530
-35 3138 -4 385 -5 703 -3 708 2 4 6 7 9 7 3 0 74 -57 158 -127z m-496 20
c-11 -32 -41 -164 -67 -292 -27 -129 -51 -231 -54 -225 -3 5 -11 26 -18 47 -7
22 -16 35 -20 30 -9 -8 -44 -121 -80 -258 -11 -38 -35 -122 -55 -185 -42 -134
-90 -321 -102 -400 l-9 -55 -27 111 c-15 61 -27 120 -27 132 0 11 -5 24 -10
27 -19 12 -39 -15 -55 -73 -9 -32 -20 -66 -24 -77 -5 -11 -21 -67 -36 -125
-25 -100 -50 -190 -144 -520 -22 -80 -41 -159 -41 -175 -1 -77 -19 -42 -53
103 -20 86 -38 170 -40 186 -2 17 -8 31 -13 33 -27 9 -47 -40 -119 -297 -42
-151 -82 -291 -88 -310 -6 -19 -12 -39 -13 -45 -1 -5 -16 -59 -34 -120 -18
-60 -38 -132 -45 -160 -8 -27 -23 -84 -34 -125 -11 -41 -21 -89 -21 -107 0
-65 -18 -40 -35 50 l-18 92 188 635 c232 787 255 863 260 869 6 5 8 -31 6 -79
-1 -19 3 -64 8 -100 6 -36 13 -81 16 -100 10 -72 27 -129 41 -141 8 -6 14 -21
15 -33 1 -35 18 22 160 532 123 442 135 480 146 455 7 -15 12 -42 13 -60 0
-30 37 -143 50 -153 4 -3 11 -13 17 -23 10 -19 25 23 146 405 22 68 37 99 51
106 11 5 15 11 9 15 -12 7 -78 -26 -110 -56 -30 -27 -29 -17 5 40 16 27 62
107 102 178 131 233 172 305 175 305 2 0 -6 -26 -16 -57z m2121 -763 c248 -28
430 -88 622 -206 130 -81 318 -269 417 -418 174 -263 275 -549 338 -956 26
-164 27 -195 27 -505 -1 -288 -3 -348 -23 -475 -21 -141 -52 -294 -73 -355 -5
-16 -16 -54 -24 -84 -8 -30 -21 -68 -28 -85 -8 -17 -17 -44 -20 -59 -4 -16
-11 -25 -17 -21 -6 3 -10 0 -8 -7 4 -32 -1 -50 -13 -43 -7 5 -8 3 -3 -5 9 -15
-24 -93 -36 -85 -5 3 -6 -3 -2 -12 5 -13 3 -15 -7 -9 -8 5 -11 4 -6 -3 4 -6
-6 -35 -21 -63 -15 -28 -36 -67 -46 -85 -17 -33 -37 -45 -37 -23 0 5 5 7 12 3
7 -4 8 -3 4 5 -11 17 -28 2 -21 -19 8 -25 -35 -86 -48 -68 -5 9 -6 6 -3 -7 4
-14 -11 -40 -53 -90 -32 -38 -64 -71 -70 -71 -6 -1 -16 -2 -22 -3 -6 0 -9 -7
-6 -15 4 -10 -1 -13 -16 -10 -12 2 -16 2 -9 -2 17 -8 15 -27 -3 -20 -9 3 -15
0 -15 -8 0 -7 -9 -21 -20 -31 -21 -19 -28 -7 -8 13 9 9 9 12 0 12 -11 0 -37
-39 -34 -50 1 -3 -4 -5 -11 -6 -35 -3 -39 -5 -33 -19 7 -18 -20 -34 -48 -27
-19 5 -20 4 -6 -13 8 -10 10 -16 4 -12 -6 3 -30 -2 -52 -13 -23 -11 -47 -20
-54 -21 -9 0 -10 -2 -1 -5 7 -3 22 0 33 6 12 6 24 10 26 8 2 -3 -16 -14 -41
-25 -24 -11 -42 -16 -39 -12 3 5 0 9 -5 9 -6 0 -11 -7 -11 -15 0 -8 -4 -16
-10 -16 -41 -5 -80 -20 -80 -30 0 -6 -5 -7 -10 -4 -6 4 -8 10 -5 15 3 5 0 12
-6 16 -8 4 -9 3 -5 -4 4 -7 1 -12 -6 -12 -10 0 -10 -2 1 -9 10 -7 10 -10 1
-16 -7 -4 -16 -2 -20 5 -4 7 -13 9 -19 6 -6 -4 -9 -11 -6 -16 3 -4 -2 -11 -11
-14 -8 -3 -12 -2 -9 4 7 11 -6 13 -30 4 -12 -5 -13 -9 -5 -14 7 -5 2 -9 -14
-12 -14 -3 -26 -2 -26 2 0 3 -14 4 -31 2 -22 -3 -27 -7 -18 -13 22 -14 -8 -11
-34 3 -21 11 -21 10 -7 -7 11 -14 11 -17 1 -11 -8 5 -17 3 -22 -5 -7 -12 -12
-12 -29 -1 -15 9 -25 10 -38 2 -14 -9 -13 -10 7 -4 17 4 21 3 16 -6 -5 -8 -22
-10 -52 -5 -35 5 -43 4 -38 -6 5 -7 4 -10 -1 -7 -5 3 -38 1 -74 -3 -103 -14
-486 -22 -1435 -30 l-220 -2 -6 174 c-4 96 -7 240 -8 321 l-1 147 238 3 c130
2 245 7 255 12 15 7 17 1 17 -73 l0 -81 408 0 c705 0 901 24 1124 135 69 35
166 100 198 134 241 253 361 587 401 1106 29 376 -25 871 -120 1112 -79 201
-214 394 -363 521 -60 51 -224 142 -255 142 -8 0 -12 3 -10 8 3 4 -7 7 -21 8
-15 0 -70 8 -122 17 -148 25 -192 27 -561 28 l-346 0 -6 97 c-4 53 -7 163 -7
244 l0 147 148 4 c230 6 677 -1 782 -13z m-2233 -843 c121 -97 224 -180 227
-186 4 -5 -2 -12 -11 -15 -10 -3 -29 -22 -42 -41 l-24 -36 8 -1027 c4 -565 9
-1060 10 -1100 3 -70 2 -74 -22 -83 -13 -5 -75 -9 -136 -9 -115 0 -173 -16
-219 -56 -15 -15 -17 -12 -22 28 -6 47 -32 2659 -27 2717 1 12 4 12 19 -1 9
-8 117 -94 239 -191z m1628 -589 c126 -79 230 -149 233 -156 2 -8 -2 -10 -14
-5 -12 4 -15 3 -10 -5 4 -7 2 -12 -3 -12 -6 0 -22 -17 -36 -38 l-25 -39 7
-807 c7 -713 6 -809 -7 -816 -8 -4 -66 -9 -128 -9 -115 -2 -150 -11 -213 -53
l-27 -18 -6 383 c-14 872 -18 1717 -9 1717 6 0 113 -64 238 -142z m-2105 -20
l-42 -63 7 -805 c3 -443 8 -848 10 -900 3 -52 1 -101 -4 -109 -12 -19 -80 -30
-183 -31 -96 0 -124 -8 -184 -57 l-42 -32 -6 517 c-3 284 -8 695 -11 913 l-6
396 123 80 c102 67 265 172 353 228 19 12 20 10 23 -31 3 -37 -3 -53 -38 -106z
m-1698 -3773 c22 -25 22 -25 30 -5 5 13 16 20 34 20 l26 0 -6 -82 c-3 -46 -8
-137 -12 -203 -6 -120 -11 -135 -46 -135 -15 0 -18 10 -18 63 0 76 -14 168
-32 205 -10 20 -20 27 -43 27 -62 0 -116 -131 -146 -354 -6 -45 -9 -164 -7
-268 4 -194 17 -262 56 -305 38 -43 93 -3 157 115 21 37 42 66 49 64 6 -2 15
-24 20 -48 7 -39 5 -52 -19 -99 -134 -264 -277 -233 -325 70 -13 84 -13 344 0
468 23 207 83 390 151 460 41 42 98 45 131 7z m378 3 c68 -71 94 -199 94 -448
-1 -414 -101 -740 -228 -740 -130 0 -190 361 -130 778 40 276 115 432 209 432
23 0 42 -8 55 -22z m800 -8 c28 -30 29 -30 32 -8 2 18 9 23 33 23 18 0 29 -5
28 -12 -2 -7 -7 -94 -13 -194 -6 -102 -15 -188 -21 -196 -7 -7 -20 -13 -30
-13 -17 0 -19 8 -19 63 0 82 -18 186 -36 215 -51 79 -134 -59 -134 -224 0
-109 15 -138 90 -171 49 -21 65 -34 81 -64 33 -66 44 -164 31 -276 -17 -145
-44 -224 -96 -278 -51 -54 -88 -59 -135 -19 -27 23 -31 24 -31 7 0 -32 -16
-46 -44 -39 -22 5 -25 11 -20 30 3 13 11 104 17 202 l12 179 26 3 26 3 6 -93
c6 -103 29 -174 58 -183 60 -19 111 88 113 236 1 115 -7 131 -90 174 -49 25
-63 38 -84 79 -47 97 -37 322 22 463 49 120 119 156 178 93z m1625 3 c24 -27
25 -27 25 -5 0 18 6 22 31 22 l31 0 -6 -67 c-3 -38 -8 -130 -12 -205 -3 -76
-9 -138 -13 -138 -3 0 -15 -3 -27 -6 -20 -5 -21 -1 -27 93 -7 100 -21 168 -39
191 -37 44 -104 -23 -138 -138 -39 -131 -52 -260 -47 -475 4 -211 16 -273 57
-310 41 -37 87 -3 149 111 20 37 42 69 48 71 7 3 17 -14 23 -38 13 -48 2 -82
-55 -174 -67 -107 -138 -140 -197 -92 -77 63 -119 306 -98 574 23 308 75 496
160 582 42 42 98 43 135 4z m1178 0 c63 -67 89 -196 89 -443 0 -196 -20 -357
-62 -508 -79 -283 -228 -313 -292 -58 -20 80 -22 116 -22 296 0 223 15 353 60
508 29 99 53 149 95 197 41 46 92 49 132 8z m2367 -3 c28 -30 29 -30 32 -8 2
18 10 24 37 26 31 3 33 2 27 -20 -3 -13 -11 -101 -16 -197 -10 -176 -16 -201
-51 -201 -17 0 -19 8 -19 75 0 129 -29 225 -68 225 -50 0 -92 -94 -99 -225 -7
-115 9 -159 64 -181 93 -37 115 -64 134 -166 12 -67 6 -203 -13 -292 -35 -169
-140 -263 -212 -191 -31 31 -34 31 -38 -3 -2 -19 -9 -28 -26 -30 -12 -2 -24 3
-27 10 -2 7 1 101 8 208 l12 195 28 3 c26 3 27 2 27 -50 0 -68 17 -164 36
-200 29 -56 88 -25 119 62 25 71 31 201 11 252 -14 37 -24 47 -78 73 -85 41
-109 88 -116 225 -13 286 120 526 228 410z m1600 0 c28 -30 29 -30 32 -8 2 17
11 24 31 26 32 4 31 22 16 -216 -9 -141 -14 -180 -27 -189 -33 -26 -39 -15
-45 90 -11 161 -30 206 -83 193 -42 -11 -76 -99 -82 -216 -6 -133 6 -160 90
-198 59 -27 66 -33 88 -83 22 -48 24 -68 24 -174 -1 -187 -46 -334 -118 -383
-45 -31 -80 -28 -116 9 -30 32 -30 32 -30 7 0 -28 -17 -48 -42 -48 -18 0 -22
9 -18 45 1 11 7 99 14 195 l11 175 26 3 c26 3 26 3 32 -90 9 -148 38 -205 91
-180 69 31 110 256 65 354 -6 13 -36 36 -72 53 -84 41 -110 89 -115 219 -13
296 118 534 228 416z m400 0 c28 -30 29 -30 32 -8 2 15 11 24 27 26 34 5 40
-7 31 -64 -5 -28 -11 -114 -15 -190 -6 -109 -10 -142 -23 -151 -33 -27 -39
-15 -45 90 -9 150 -32 205 -79 194 -48 -12 -88 -127 -88 -253 0 -98 17 -129
88 -160 45 -19 64 -34 80 -63 73 -130 36 -454 -63 -558 -53 -55 -93 -58 -136
-12 -29 31 -29 31 -29 7 0 -29 -17 -48 -43 -48 -18 0 -19 6 -12 127 4 71 10
164 13 208 7 77 8 80 33 83 26 3 26 3 32 -90 10 -152 37 -205 91 -180 68 31
107 243 65 352 -6 17 -30 35 -72 55 -53 26 -65 37 -87 80 -21 42 -25 67 -28
160 -10 285 121 510 228 395z m-10574 -10 c58 -22 90 -106 106 -273 25 -257
-30 -655 -109 -784 -41 -68 -65 -78 -188 -78 l-110 0 -3 39 c-5 61 4 86 33 86
17 0 25 6 25 18 0 9 7 114 15 232 8 118 19 292 25 385 5 94 12 189 14 213 3
38 1 43 -20 48 -21 6 -24 12 -24 58 0 29 3 56 7 59 10 11 199 8 229 -3z m388
2 c5 -9 13 -100 52 -647 14 -198 28 -362 30 -365 5 -4 84 -3 89 2 2 2 13 156
24 343 12 187 23 351 26 365 2 14 5 61 7 105 2 68 0 80 -14 77 -27 -4 -37 20
-30 73 l7 50 95 3 c52 2 112 -2 132 -8 32 -9 39 -17 59 -68 18 -46 22 -78 23
-172 0 -164 -32 -288 -91 -352 l-26 -27 21 -128 c12 -70 24 -153 27 -184 4
-31 10 -62 15 -68 9 -16 99 -18 109 -2 4 6 13 102 19 214 7 111 19 303 28 425
8 123 13 230 10 238 -3 8 -15 14 -26 14 -22 0 -26 27 -14 89 6 31 7 31 70 31
58 0 65 -2 73 -22 4 -13 27 -207 50 -433 23 -226 44 -414 45 -420 7 -21 43
481 48 660 l3 90 -30 0 c-28 0 -30 3 -33 39 -2 22 -1 50 2 63 6 22 11 23 91
23 l85 0 0 -60 c0 -33 -4 -61 -10 -61 -5 -1 -16 -2 -22 -3 -9 -1 -15 -33 -20
-101 -14 -205 -38 -566 -48 -740 -6 -99 -13 -186 -15 -193 -3 -7 -21 -12 -44
-12 -34 0 -41 4 -45 23 -6 26 -36 307 -67 622 -12 121 -24 227 -27 235 -5 14
-14 -97 -41 -495 -16 -241 -17 -233 22 -237 31 -3 32 -5 35 -49 5 -74 -5 -79
-164 -78 -160 1 -145 -13 -163 159 -11 103 -32 248 -47 323 -4 20 -11 27 -29
27 -28 0 -31 -16 -40 -205 -3 -66 -8 -132 -11 -147 -5 -23 -2 -27 23 -30 26
-3 28 -7 31 -51 2 -27 -2 -55 -9 -63 -14 -17 -154 -20 -165 -3 -4 8 -9 8 -17
0 -12 -12 -153 -15 -161 -3 -2 4 -1 32 2 62 6 51 9 55 35 58 31 4 32 12 20
160 l-6 82 -73 0 c-41 0 -74 -2 -74 -4 0 -2 -9 -48 -20 -101 -26 -127 -26
-135 4 -135 31 0 38 -21 28 -80 l-7 -45 -71 -3 c-84 -3 -92 3 -86 72 3 36 9
50 22 53 13 3 22 25 33 81 49 236 167 817 167 820 0 2 -5 0 -11 -3 -6 -4 -26
-4 -45 -1 -34 7 -34 7 -34 60 0 29 3 56 7 59 9 10 161 9 167 -1z m1201 -4 c2
-7 13 -141 25 -298 11 -157 27 -374 35 -482 8 -109 15 -204 15 -212 0 -7 9
-16 21 -19 19 -5 20 -10 14 -59 -4 -29 -9 -56 -12 -60 -2 -5 -38 -8 -79 -8
-86 0 -89 3 -77 76 7 44 11 49 36 52 31 4 31 4 21 150 l-7 92 -73 0 c-41 0
-74 -2 -74 -4 0 -8 -41 -202 -46 -218 -4 -14 1 -18 24 -18 36 0 41 -10 33 -75
l-6 -50 -74 -3 c-41 -2 -78 1 -84 7 -5 5 -6 31 -2 61 5 39 12 54 26 57 10 3
19 8 19 12 0 4 34 173 76 377 112 548 104 504 85 505 -9 1 -20 2 -26 4 -5 1
-18 3 -27 3 -15 2 -18 12 -18 56 0 34 5 56 13 59 27 12 158 7 162 -5z m1307
-38 c4 -25 21 -182 38 -350 17 -168 36 -348 43 -400 l11 -95 7 85 c8 89 37
548 40 635 2 36 -1 49 -10 47 -7 -1 -22 0 -33 3 -16 6 -19 15 -16 63 l3 57 85
0 85 0 3 -52 c3 -48 1 -54 -22 -64 -28 -13 -29 -20 -46 -309 -14 -249 -40
-626 -46 -687 l-5 -53 -44 0 -43 0 -6 67 c-10 94 -42 396 -66 618 -11 101 -20
192 -20 201 0 10 -2 15 -4 13 -2 -2 -9 -83 -15 -179 -16 -238 -30 -443 -36
-512 l-6 -57 38 -3 38 -3 -3 -50 c-4 -76 -3 -75 -89 -75 -103 0 -107 4 -99 74
7 51 10 56 32 56 16 0 24 6 24 18 1 9 5 78 10 152 12 168 38 584 42 665 2 42
-1 60 -9 61 -7 1 -17 2 -23 3 -11 1 -14 104 -3 115 4 4 37 6 73 4 l65 -3 7
-45z m1020 40 c2 -5 -1 -114 -5 -242 -7 -198 -11 -235 -25 -246 -9 -7 -23 -11
-32 -10 -17 4 -17 2 -9 237 l4 143 -37 3 c-47 2 -43 29 -68 -385 -11 -179 -23
-367 -27 -417 l-6 -93 35 0 c42 0 47 -9 39 -75 l-6 -50 -100 -3 c-55 -1 -105
1 -112 6 -8 5 -9 25 -5 62 7 55 7 55 44 58 l37 3 5 62 c19 211 56 821 50 827
-3 3 -21 5 -39 5 -39 0 -36 10 -56 -215 -15 -178 -19 -189 -63 -157 -15 11
-16 21 -7 97 6 47 15 150 21 230 6 80 13 151 15 158 5 15 341 18 347 2z m309
-18 c28 -36 41 -87 46 -192 9 -161 -27 -315 -86 -379 l-29 -31 18 -107 c10
-60 23 -147 30 -196 12 -87 12 -87 42 -87 l29 0 -3 -63 -3 -62 -55 0 -55 0
-12 105 c-18 154 -43 320 -54 363 -8 29 -15 37 -33 37 -23 0 -24 -3 -30 -112
-4 -62 -9 -148 -13 -190 l-6 -78 26 0 c31 0 35 -12 28 -75 l-6 -50 -85 0 c-96
0 -97 1 -85 81 5 38 10 44 30 44 30 0 30 -5 56 420 26 434 27 474 12 476 -7 1
-17 2 -23 3 -11 1 -14 80 -4 106 6 14 22 16 126 13 111 -3 121 -5 139 -26z
m297 -29 c3 -44 0 -53 -18 -63 -11 -6 -24 -9 -28 -6 -22 13 -30 -24 -40 -204
-7 -107 -17 -273 -23 -368 -12 -186 -5 -281 26 -328 37 -56 96 -10 119 94 18
85 23 131 41 432 8 135 18 275 21 313 l7 67 -38 0 -38 0 6 52 c4 28 10 55 15
60 5 5 44 8 88 6 75 -3 79 -4 82 -27 7 -44 -7 -87 -32 -99 -21 -9 -23 -18 -29
-119 -40 -696 -60 -822 -148 -904 -65 -60 -140 -20 -174 93 -21 72 -19 287 5
628 22 309 22 316 14 307 -4 -3 -15 -2 -25 4 -16 8 -18 17 -13 52 10 71 6 68
96 65 l83 -3 3 -52z m988 -179 c-4 -130 -10 -242 -13 -250 -6 -16 -39 -28 -54
-18 -8 4 -9 40 -5 113 3 58 7 142 8 185 l3 79 -38 4 c-24 2 -39 -1 -42 -9 -3
-11 -35 -485 -52 -790 l-6 -98 35 0 c42 0 47 -9 39 -75 l-6 -50 -100 -3 c-55
-1 -106 2 -113 6 -9 6 -10 23 -5 63 8 54 8 54 46 57 20 2 37 4 37 5 0 5 31
479 44 672 8 115 13 212 11 216 -3 3 -18 6 -35 7 -41 1 -44 -9 -59 -188 -18
-213 -21 -219 -64 -187 -17 12 -17 25 3 242 12 127 23 236 25 243 3 9 48 12
176 12 l172 0 -7 -236z m376 176 c-2 -30 -5 -57 -8 -60 -3 -3 -29 -5 -57 -5
l-52 0 -21 -310 c-12 -171 -25 -372 -29 -447 l-7 -137 53 -3 54 -3 3 -39 c2
-22 1 -50 -3 -63 l-6 -24 -142 3 -142 3 0 60 0 60 57 3 57 3 5 62 c3 34 13
175 21 312 9 138 20 308 25 380 4 71 6 133 3 138 -3 4 -17 8 -31 7 -15 -1 -40
-2 -56 -1 l-29 1 7 52 c4 28 10 56 12 60 3 5 69 7 147 6 l142 -3 -3 -55z m601
53 c3 -5 10 -57 16 -118 35 -351 80 -747 85 -752 3 -4 6 7 6 23 0 26 37 629
43 698 2 25 -1 29 -31 31 -18 2 -35 5 -38 8 -3 3 -2 29 3 59 l8 53 85 0 85 0
3 -46 c3 -46 -18 -86 -38 -74 -10 6 -17 -60 -40 -445 -12 -179 -25 -377 -30
-440 -5 -63 -10 -125 -10 -137 0 -20 -5 -23 -44 -23 l-45 0 -5 43 c-3 23 -19
177 -36 342 -44 427 -54 515 -57 511 -2 -2 -12 -140 -23 -307 -11 -167 -23
-334 -26 -371 l-7 -68 37 0 37 0 -3 -63 -3 -62 -68 -3 c-106 -5 -117 0 -117
52 0 59 8 76 34 76 22 0 23 5 34 173 10 144 35 536 44 682 2 26 -2 40 -10 41
-6 1 -16 2 -22 3 -11 1 -14 104 -3 114 9 10 131 9 136 0z m1313 -26 c37 -43
49 -101 48 -227 0 -114 -10 -171 -41 -243 -15 -35 -15 -40 0 -73 32 -66 42
-164 29 -276 -16 -141 -35 -202 -82 -252 l-39 -41 -128 0 -128 0 -1 35 c-1 57
10 84 37 90 27 7 19 -66 63 605 20 306 21 283 -9 291 -22 5 -25 12 -25 49 0
78 -2 77 132 73 117 -3 120 -4 144 -31z m292 -18 c3 -52 -15 -80 -47 -74 -24
4 -26 -10 -47 -330 -31 -497 -19 -611 61 -591 28 7 59 60 74 128 9 41 34 334
46 543 3 55 8 136 11 179 5 64 4 78 -7 74 -8 -3 -23 -2 -34 2 -17 7 -20 15
-17 64 l4 57 86 -3 87 -3 3 -52 c3 -45 0 -53 -20 -64 -13 -7 -25 -10 -28 -8
-3 2 -12 -118 -21 -268 -34 -559 -52 -662 -132 -747 -47 -50 -92 -50 -135 -1
-43 48 -53 91 -59 235 -4 107 13 472 33 717 6 69 6 71 -17 75 -22 3 -24 7 -20
53 1 28 5 54 8 58 3 4 41 6 86 5 l82 -3 3 -46z m970 -4 c4 -60 -9 -73 -72 -68
l-45 3 -5 -42 c-3 -24 -12 -155 -21 -293 -9 -137 -20 -314 -25 -392 -6 -78
-10 -149 -10 -157 0 -11 14 -16 53 -18 l52 -3 0 -60 0 -60 -145 0 -145 0 -3
48 c-4 63 9 77 69 77 l48 0 5 43 c3 23 15 191 26 372 12 182 24 363 27 403 5
66 4 72 -13 73 -18 2 -41 4 -76 7 -15 2 -18 12 -18 55 0 30 3 57 7 61 4 3 70
5 147 4 l141 -3 3 -50z m196 46 c4 -5 13 -74 21 -153 58 -562 76 -730 81 -726
2 3 43 625 47 723 2 37 0 40 -25 40 -39 1 -46 13 -39 70 l6 50 88 3 87 3 0
-54 c0 -39 -5 -59 -17 -68 -9 -8 -19 -12 -22 -9 -9 7 -17 -79 -35 -370 -29
-458 -36 -564 -42 -617 l-5 -53 -40 0 c-23 0 -42 5 -44 12 -5 13 -23 180 -65
588 -12 107 -24 220 -28 250 l-8 55 -7 -90 c-4 -49 -14 -200 -22 -335 -8 -135
-17 -264 -20 -288 l-5 -42 34 0 c20 0 36 -6 39 -14 8 -21 -4 -100 -17 -108
-13 -9 -122 -10 -153 -2 -25 7 -29 32 -17 93 5 23 12 31 29 31 21 0 22 5 33
143 13 157 45 662 46 717 1 21 -4 35 -11 36 -7 1 -17 2 -23 3 -11 1 -14 80 -4
105 5 12 21 16 69 16 35 0 66 -4 69 -9z m621 -128 c-4 -76 -10 -165 -14 -198
-6 -56 -8 -60 -31 -60 l-25 0 0 135 0 135 -77 3 -76 3 -6 -38 c-3 -21 -8 -102
-12 -180 l-7 -143 36 0 35 0 7 69 c7 70 18 87 50 75 18 -7 18 -13 4 -224 -11
-174 -20 -202 -55 -182 -16 9 -18 21 -16 77 l4 66 -39 -3 -38 -3 -7 -105 c-3
-58 -9 -151 -12 -207 l-7 -103 84 0 84 0 7 103 c10 151 14 167 42 167 12 0 25
-4 29 -9 5 -9 -10 -259 -21 -349 l-5 -42 -172 2 -172 3 -3 39 c-5 61 4 86 33
86 31 0 31 -1 45 245 6 110 18 288 25 395 17 229 18 263 6 256 -5 -4 -16 -3
-25 0 -12 5 -16 20 -16 58 0 29 3 56 7 59 3 4 83 7 176 7 l169 0 -7 -137z
m-2706 63 c14 -15 30 -22 42 -19 22 6 24 -8 9 -53 -5 -16 -14 -48 -20 -71 -6
-24 -15 -43 -20 -43 -5 0 -19 19 -32 43 -28 51 -49 54 -65 7 -18 -54 -15 -131
12 -295 40 -244 36 -232 54 -140 l16 80 39 3 c21 2 42 0 46 -5 5 -4 6 -32 3
-61 -5 -45 -10 -55 -29 -63 -14 -5 -24 -17 -24 -28 0 -11 -9 -58 -20 -105 -19
-80 -20 -118 -4 -178 3 -9 15 -18 27 -20 19 -3 22 -10 25 -51 4 -63 -9 -79
-62 -75 -37 3 -42 7 -52 37 l-11 33 -21 -36 c-21 -35 -53 -51 -89 -44 -10 1
-29 25 -42 52 -58 116 -27 452 50 549 18 24 18 29 4 122 -22 146 3 305 57 362
29 31 77 30 107 -1z m4617 -437 c30 -18 34 -19 34 -4 0 12 7 15 28 13 15 -2
27 -7 27 -13 0 -5 -4 -58 -9 -117 -8 -102 -9 -107 -33 -113 -14 -3 -28 -4 -30
-1 -3 3 -8 32 -12 65 -8 69 -31 101 -72 101 -90 0 -166 -168 -157 -350 9 -178
89 -220 208 -110 30 28 57 50 60 50 6 0 30 -45 30 -56 0 -3 -26 -32 -59 -64
-155 -154 -298 -75 -309 170 -12 282 150 518 294 429z m-816 -17 c54 -27 75
-73 74 -162 -1 -92 -26 -154 -80 -198 -34 -28 -46 -32 -100 -32 -70 0 -66 6
-79 -112 l-6 -57 33 5 c47 8 70 -12 60 -51 l-8 -30 -105 0 c-104 0 -104 0
-107 25 -3 32 9 51 36 53 14 1 23 10 26 27 4 19 56 443 56 456 0 1 -10 4 -22
6 -25 3 -33 26 -24 64 6 23 9 24 109 24 77 0 110 -4 137 -18z m365 6 c3 -7 1
-26 -3 -43 -7 -25 -14 -31 -47 -35 l-40 -5 -27 -234 c-15 -129 -26 -237 -23
-239 2 -2 37 -4 77 -5 l73 0 7 39 c4 21 13 71 20 109 12 65 15 70 41 73 36 4
35 15 8 -183 l-16 -120 -177 -3 -178 -2 0 35 c0 28 5 38 23 44 12 5 25 7 30 4
15 -9 26 49 47 234 11 103 23 203 27 221 5 30 4 32 -26 32 -18 0 -31 5 -32 13
-2 20 3 61 8 70 8 13 203 8 208 -5z"/>
<path d="M8325 3070 c-9 -16 -13 -30 -11 -30 3 0 12 14 21 30 9 17 13 30 11
30 -3 0 -12 -13 -21 -30z"/>
<path d="M8287 3043 c-4 -3 -7 -13 -7 -22 1 -13 3 -13 11 2 11 19 8 33 -4 20z"/>
<path d="M8250 2980 c-6 -11 -9 -20 -8 -20 2 0 11 9 21 20 9 11 13 20 7 20 -5
0 -14 -9 -20 -20z"/>
<path d="M8030 2799 c0 -5 5 -7 10 -4 6 3 10 8 10 11 0 2 -4 4 -10 4 -5 0 -10
-5 -10 -11z"/>
<path d="M3025 1408 c-4 -18 -9 -89 -10 -158 -1 -75 -6 -134 -14 -147 -12 -23
-6 -29 15 -15 10 7 30 352 21 352 -3 0 -8 -15 -12 -32z"/>
<path d="M2846 1388 c-73 -73 -115 -259 -123 -538 -5 -190 3 -302 27 -366 17
-45 20 -21 4 36 -22 81 -29 304 -14 445 22 215 74 371 137 412 24 16 27 16 54
0 24 -13 29 -13 29 -2 0 18 -38 45 -63 45 -11 0 -34 -15 -51 -32z"/>
<path d="M2985 497 c-17 -34 -51 -84 -77 -111 -45 -47 -49 -48 -87 -42 -24 4
-41 2 -41 -3 0 -14 41 -41 62 -41 53 0 204 208 179 248 -3 6 -20 -16 -36 -51z"/>
<path d="M3248 1405 c-68 -37 -127 -264 -143 -545 -8 -143 9 -319 36 -375 10
-22 17 -31 13 -20 -54 189 -42 572 24 765 48 139 90 180 143 141 26 -20 27
-20 22 -1 -3 11 -10 20 -15 20 -5 0 -6 5 -2 12 4 6 3 8 -4 4 -6 -3 -13 -2 -17
4 -8 14 -25 12 -57 -5z"/>
<path d="M3371 1383 c40 -163 43 -182 42 -358 0 -300 -52 -542 -139 -643 -38
-45 -61 -51 -107 -28 -26 14 -27 14 -17 -5 6 -10 21 -26 34 -34 122 -80 246
283 246 720 0 156 -19 305 -46 357 -20 38 -24 35 -13 -9z"/>
<path d="M3241 1342 c-11 -16 -31 -62 -45 -103 -80 -239 -83 -714 -5 -797 27
-30 43 -28 73 8 75 90 130 438 108 684 -14 155 -44 236 -86 236 -16 0 -32 -10
-45 -28z"/>
<path d="M4214 1423 c-3 -16 -10 -40 -15 -54 -6 -14 -9 -72 -8 -130 1 -57 -1
-115 -5 -128 -6 -17 -5 -22 5 -19 10 3 16 39 21 139 4 74 9 153 11 177 5 48 0
56 -9 15z"/>
<path d="M4140 1430 c0 -5 5 -10 11 -10 5 0 7 5 4 10 -3 6 -8 10 -11 10 -2 0
-4 -4 -4 -10z"/>
<path d="M4054 1408 c-64 -31 -114 -245 -88 -377 11 -55 21 -33 11 25 -19 114
32 303 89 324 20 8 32 7 50 -5 32 -21 35 -19 22 10 -6 14 -17 25 -24 25 -7 0
-18 2 -26 4 -7 3 -23 0 -34 -6z"/>
<path d="M3987 884 c3 -9 31 -28 62 -41 31 -14 59 -30 63 -36 5 -8 8 -7 8 4 0
23 -34 59 -56 59 -11 1 -30 7 -44 15 -33 19 -41 18 -33 -1z"/>
<path d="M4146 845 c2 -22 8 -62 14 -90 22 -100 -7 -262 -60 -346 -39 -60 -59
-72 -106 -63 -34 6 -35 5 -25 -14 14 -26 53 -35 85 -20 35 15 81 90 101 163
10 36 18 114 21 195 4 119 2 140 -14 175 l-20 40 4 -40z"/>
<path d="M3932 575 c-1 -65 3 -97 14 -115 l15 -25 -7 30 c-3 17 -10 68 -14
115 l-7 85 -1 -90z"/>
<path d="M3917 403 c-4 -3 -7 -18 -7 -32 0 -15 -7 -37 -16 -49 -14 -20 -14
-22 3 -22 15 0 20 9 22 42 3 51 12 68 22 42 7 -17 8 -17 8 4 1 21 -18 30 -32
15z"/>
<path d="M5825 1408 c-4 -18 -9 -91 -12 -163 -2 -71 -9 -135 -15 -142 -8 -10
-6 -13 9 -13 19 0 20 10 26 172 4 94 5 173 3 175 -2 2 -7 -11 -11 -29z"/>
<path d="M5646 1388 c-58 -59 -107 -234 -123 -438 -12 -153 -1 -383 21 -448
23 -69 28 -63 10 13 -8 33 -18 123 -21 200 -13 301 49 591 139 658 24 18 28
18 57 4 29 -14 31 -14 31 2 0 18 -38 41 -66 41 -9 0 -31 -15 -48 -32z"/>
<path d="M5778 488 c-18 -35 -52 -82 -75 -107 -41 -43 -44 -44 -90 -38 l-48 7
29 -26 c34 -30 66 -26 110 14 51 48 135 196 116 207 -5 3 -24 -23 -42 -57z"/>
<path d="M6965 1405 c4 -16 16 -70 27 -120 43 -189 19 -559 -48 -765 -43 -129
-114 -203 -165 -172 -29 19 -32 -4 -3 -27 33 -26 41 -26 79 -3 58 36 116 184
152 392 25 149 26 493 0 600 -10 41 -25 86 -33 100 l-15 25 6 -30z"/>
<path d="M6830 1390 c-60 -65 -104 -237 -122 -477 -13 -175 -2 -341 26 -419
20 -53 19 -30 0 53 -11 47 -16 116 -16 223 0 304 65 574 147 612 22 10 30 8
55 -10 25 -19 29 -20 23 -5 -21 59 -70 69 -113 23z"/>
<path d="M6839 1339 c-67 -94 -114 -360 -106 -599 12 -337 99 -427 179 -184
75 226 85 620 20 767 -26 58 -58 64 -93 16z"/>
<path d="M9379 1413 c-7 -26 -14 -102 -14 -168 -1 -66 -5 -128 -9 -137 -6 -13
-4 -18 8 -18 13 0 16 14 16 83 1 45 5 127 10 182 5 55 7 101 5 103 -2 2 -9
-18 -16 -45z"/>
<path d="M9321 1414 c0 -11 3 -14 6 -6 3 7 2 16 -1 19 -3 4 -6 -2 -5 -13z"/>
<path d="M9205 1393 c-44 -49 -70 -144 -70 -265 0 -76 4 -111 13 -120 11 -11
12 -8 5 17 -26 98 12 292 68 339 35 30 51 32 73 10 13 -13 16 -13 16 -1 0 20
-33 47 -58 47 -12 0 -33 -12 -47 -27z"/>
<path d="M9165 880 c15 -16 44 -35 64 -41 20 -6 42 -16 49 -22 15 -12 27 -3
17 13 -6 10 -140 80 -153 80 -3 0 7 -13 23 -30z"/>
<path d="M9313 854 c43 -149 27 -328 -38 -439 -33 -57 -66 -79 -105 -71 -36 7
-39 -8 -5 -30 63 -41 137 47 170 204 26 121 16 328 -16 348 -7 4 -9 0 -6 -12z"/>
<path d="M9103 568 c2 -68 6 -101 16 -110 11 -11 12 -8 6 17 -4 17 -11 66 -15
110 l-8 80 1 -97z"/>
<path d="M9092 407 c-5 -6 -12 -25 -14 -42 -3 -16 -9 -38 -13 -47 -5 -13 -3
-18 9 -18 12 0 16 10 16 44 0 44 13 68 23 44 4 -8 6 -7 6 4 1 22 -14 31 -27
15z"/>
<path d="M10985 1438 c-15 -49 -19 -87 -21 -193 -1 -66 -5 -128 -10 -139 -5
-14 -3 -17 7 -14 11 4 16 37 21 144 3 76 9 156 11 177 5 36 0 50 -8 25z"/>
<path d="M10811 1398 c-32 -29 -57 -90 -72 -172 -13 -75 -8 -201 9 -218 7 -7
7 3 0 33 -12 52 -4 155 16 223 28 93 84 147 121 116 23 -19 31 -3 10 20 -24
26 -55 25 -84 -2z"/>
<path d="M10754 893 c3 -8 6 -17 6 -19 0 -4 127 -64 136 -64 2 0 1 7 -3 16 -3
8 -37 30 -75 49 -47 22 -67 28 -64 18z"/>
<path d="M10913 844 c25 -109 28 -146 22 -214 -17 -181 -95 -308 -175 -287
-24 6 -26 -6 -4 -27 57 -57 153 62 185 228 12 65 11 232 -1 278 -13 46 -36 65
-27 22z"/>
<path d="M10700 635 c-7 -69 7 -185 21 -185 6 0 7 9 4 21 -4 11 -10 59 -14
107 -5 48 -9 74 -11 57z"/>
<path d="M10692 408 c-7 -7 -12 -21 -12 -32 0 -12 -7 -33 -14 -48 -13 -24 -13
-28 -1 -28 8 0 17 15 20 38 10 60 16 70 25 47 8 -19 9 -19 9 2 1 27 -12 36
-27 21z"/>
<path d="M11386 1439 c-14 -45 -19 -88 -25 -209 -3 -74 -5 -137 -4 -139 1 -1
6 0 12 4 7 4 11 47 12 108 0 56 4 134 8 172 8 67 7 94 -3 64z"/>
<path d="M11206 1397 c-40 -41 -68 -132 -73 -242 -4 -79 -2 -107 11 -135 9
-19 14 -26 10 -15 -15 52 -15 154 0 218 31 132 78 188 130 154 33 -22 42 1 10
25 -30 24 -60 22 -88 -5z"/>
<path d="M11151 889 c21 -31 139 -85 139 -63 0 9 -24 26 -57 40 -32 14 -67 30
-78 36 -18 10 -19 10 -4 -13z"/>
<path d="M11314 853 c47 -168 14 -390 -70 -479 -31 -34 -37 -36 -74 -30 -33 5
-38 4 -33 -10 8 -22 48 -35 76 -25 79 31 137 191 137 381 0 94 -15 180 -32
180 -5 0 -7 -8 -4 -17z"/>
<path d="M11101 645 c-8 -36 3 -163 15 -184 15 -26 15 -26 8 9 -4 19 -10 69
-14 110 -4 41 -8 71 -9 65z"/>
<path d="M11092 408 c-7 -7 -12 -21 -12 -32 0 -12 -7 -33 -14 -48 -12 -23 -12
-28 -2 -28 15 0 26 30 26 74 0 24 2 27 15 16 12 -10 15 -10 15 3 0 21 -14 29
-28 15z"/>
<path d="M540 1382 c-20 -7 -10 -21 18 -24 l27 -3 -1 -105 c0 -58 -11 -257
-23 -442 -13 -186 -21 -343 -18 -350 5 -16 12 69 37 462 11 173 23 343 26 378
l6 62 49 0 c28 0 63 -7 79 -15 35 -18 40 -5 9 26 -18 18 -30 20 -109 17 -50
-2 -94 -4 -100 -6z"/>
<path d="M785 1373 c30 -78 39 -158 39 -328 0 -257 -36 -479 -95 -586 -38 -68
-77 -89 -169 -89 -57 0 -81 -4 -90 -15 -11 -13 0 -15 86 -15 105 0 137 11 170
59 25 36 61 150 85 271 20 100 23 146 24 355 0 208 -3 248 -19 303 -11 34 -23
62 -29 62 -5 0 -6 -8 -2 -17z"/>
<path d="M633 1342 c-7 -4 -17 -103 -28 -267 -9 -143 -22 -341 -28 -440 l-12
-180 44 -3 c59 -4 90 26 119 115 39 123 55 255 56 453 1 149 -2 196 -16 241
-10 31 -23 61 -30 67 -17 13 -90 23 -105 14z"/>
<path d="M2070 1410 c-19 -27 -25 -29 -59 -24 -27 4 -40 2 -50 -10 -12 -14 -9
-16 22 -16 39 0 59 -22 52 -56 -7 -33 -37 -558 -33 -589 1 -17 11 96 21 250
24 385 24 385 53 395 19 8 24 17 24 45 0 19 -2 35 -4 35 -3 0 -14 -14 -26 -30z"/>
<path d="M1107 1423 c-12 -11 -8 -121 4 -125 7 -2 15 -44 19 -98 23 -268 30
-408 22 -434 l-8 -29 -85 2 c-86 2 -86 2 -97 -26 -12 -30 -52 -225 -52 -251 0
-36 11 3 35 118 14 67 25 124 25 126 0 2 40 4 89 4 62 0 92 -4 100 -14 6 -7
14 -61 18 -120 3 -59 10 -109 15 -112 5 -3 6 12 3 33 -3 21 -14 166 -25 323
-11 157 -24 341 -30 410 -5 69 -10 142 -10 163 0 35 -8 46 -23 30z"/>
<path d="M1821 1407 c-12 -30 -29 -38 -55 -25 -13 7 -23 6 -34 -6 -15 -15 -14
-16 10 -16 16 0 33 -9 42 -21 l14 -21 4 21 c3 19 5 20 20 9 13 -10 20 -49 33
-168 41 -390 74 -667 69 -585 -8 146 -82 826 -90 834 -2 2 -8 -8 -13 -22z"/>
<path d="M1580 1386 c0 -8 7 -43 16 -78 25 -98 7 -256 -39 -344 -26 -49 -87
-108 -100 -95 -6 6 -26 11 -44 11 -26 0 -34 -5 -38 -22 -7 -33 -25 -304 -24
-363 2 -50 2 -49 9 15 5 36 11 127 15 203 l8 137 26 0 c56 0 70 -11 85 -60 8
-26 22 -108 32 -181 9 -74 21 -141 26 -149 11 -19 3 54 -28 240 l-24 144 25
23 c34 33 53 71 76 160 21 86 26 232 8 312 -10 48 -29 79 -29 47z"/>
<path d="M986 1375 c-18 -14 -16 -15 33 -15 38 0 51 4 49 13 -6 18 -60 19 -82
2z"/>
<path d="M1341 1373 c-14 -11 -13 -12 9 -13 54 -1 54 -2 41 -200 -6 -101 -10
-185 -7 -187 5 -6 14 71 21 192 3 55 8 121 11 148 l6 47 42 0 c22 0 56 -4 74
-9 36 -11 41 -2 13 23 -15 14 -35 17 -106 14 -49 -2 -95 -8 -104 -15z"/>
<path d="M1435 1336 c-4 -13 -25 -303 -25 -346 0 -28 3 -30 38 -30 51 0 78 21
96 78 32 96 33 245 2 287 -15 20 -106 29 -111 11z"/>
<path d="M1772 1095 c-13 -200 -15 -251 -8 -244 6 6 29 381 24 409 -2 14 -9
-60 -16 -165z"/>
<path d="M1067 1250 c-23 -97 -87 -434 -83 -437 10 -10 101 428 93 449 -2 7
-7 2 -10 -12z"/>
<path d="M1052 1035 c-18 -88 -35 -175 -38 -192 l-6 -33 57 0 58 0 -7 68 c-3
37 -8 108 -12 158 -12 175 -16 175 -52 -1z"/>
<path d="M1746 713 c-3 -71 -8 -159 -11 -198 -3 -52 -2 -61 4 -36 10 37 26
361 19 361 -3 0 -8 -57 -12 -127z"/>
<path d="M1986 563 c-8 -133 -25 -210 -49 -228 -24 -18 -21 -25 12 -25 25 0
29 4 34 38 9 54 21 332 15 332 -3 0 -8 -53 -12 -117z"/>
<path d="M962 408 c-7 -7 -12 -18 -12 -25 0 -8 -14 -13 -38 -13 -21 0 -47 -7
-58 -15 -17 -13 -12 -14 54 -15 l72 0 0 40 c0 44 -1 45 -18 28z"/>
<path d="M1204 395 c-11 -17 -25 -25 -44 -25 -34 0 -60 -9 -60 -21 0 -5 29 -9
65 -9 l65 0 0 40 c0 47 -4 49 -26 15z"/>
<path d="M1790 395 c-11 -21 -21 -25 -60 -25 -25 0 -55 -7 -66 -15 -17 -13
-11 -14 64 -15 l82 0 0 40 c0 22 -1 40 -3 40 -2 0 -10 -11 -17 -25z"/>
<path d="M1388 390 c-9 -14 -24 -20 -53 -20 -22 0 -49 -7 -59 -15 -18 -14 -13
-15 57 -15 69 0 77 2 77 19 0 11 3 26 6 35 9 23 -14 20 -28 -4z"/>
<path d="M1595 390 c-3 -11 -14 -20 -24 -20 -10 0 -24 -7 -31 -15 -11 -13 -6
-15 34 -15 46 0 46 0 46 35 0 38 -15 47 -25 15z"/>
<path d="M2307 1423 c-11 -10 -8 -103 4 -125 6 -11 15 -66 20 -122 21 -250 28
-378 22 -406 l-5 -30 -84 0 c-76 0 -85 -2 -98 -22 -15 -24 -60 -240 -54 -260
2 -6 14 38 26 98 13 60 25 119 28 132 4 21 9 22 93 22 59 0 92 -4 99 -12 5 -7
14 -65 18 -128 5 -63 10 -104 12 -90 1 14 -6 156 -18 315 -11 160 -26 368 -32
463 -11 161 -15 182 -31 165z"/>
<path d="M2186 1375 c-18 -14 -16 -15 33 -15 38 0 51 4 49 13 -6 18 -60 19
-82 2z"/>
<path d="M2271 1270 c-1 -3 -21 -104 -46 -225 -25 -120 -43 -220 -40 -223 7
-8 11 9 55 226 23 112 39 209 36 215 -2 7 -5 10 -5 7z"/>
<path d="M2280 1184 c0 -5 -16 -87 -35 -182 -19 -95 -35 -177 -35 -182 0 -6
25 -10 55 -10 37 0 55 4 55 13 -1 43 -31 361 -35 365 -3 3 -5 1 -5 -4z"/>
<path d="M2162 408 c-7 -7 -12 -18 -12 -25 0 -8 -13 -13 -32 -13 -42 0 -78
-10 -78 -21 0 -5 32 -9 70 -9 l70 0 0 40 c0 44 -1 45 -18 28z"/>
<path d="M2412 408 c-7 -7 -12 -18 -12 -25 0 -8 -14 -13 -38 -13 -21 0 -47 -7
-58 -15 -17 -13 -12 -14 54 -15 l72 0 0 40 c0 44 -1 45 -18 28z"/>
<path d="M3870 1432 c0 -5 -9 -18 -21 -30 -16 -18 -27 -21 -52 -17 -21 4 -39
1 -52 -9 -19 -15 -18 -15 22 -16 37 0 43 -3 49 -25 6 -23 -6 -224 -40 -726 -8
-102 -18 -195 -25 -207 -6 -11 -11 -29 -11 -40 0 -11 -7 -22 -15 -26 -26 -10
-16 -26 15 -26 26 0 30 4 30 28 0 15 7 126 15 247 8 121 22 330 30 465 19 301
20 310 45 310 17 0 20 7 20 40 0 22 -2 40 -5 40 -3 0 -5 -4 -5 -8z"/>
<path d="M3604 1404 c-6 -23 -11 -26 -38 -21 -17 2 -37 2 -43 0 -22 -8 -14
-23 11 -23 14 0 28 -5 31 -10 5 -8 11 -8 20 0 28 23 42 -30 64 -250 39 -380
62 -585 67 -595 6 -14 -2 92 -26 315 -35 327 -60 574 -60 593 0 26 -19 20 -26
-9z"/>
<path d="M3571 1292 c0 -13 -12 -193 -26 -400 -14 -207 -25 -393 -23 -412 2
-19 9 46 16 145 28 391 43 657 39 673 -3 12 -5 10 -6 -6z"/>
<path d="M3574 395 c-14 -21 -24 -25 -64 -25 -30 0 -52 -6 -60 -15 -11 -13 -2
-15 69 -15 l81 0 0 40 c0 47 -4 49 -26 15z"/>
<path d="M4632 1428 c-7 -7 -12 -18 -12 -25 0 -9 -18 -13 -63 -13 -36 0 -68
-5 -75 -12 -9 -9 -12 -9 -12 0 0 16 -104 16 -118 0 -5 -7 -15 -76 -21 -153 -7
-77 -16 -162 -22 -189 -6 -33 -6 -53 1 -60 7 -7 10 -2 11 15 0 13 8 101 17
194 l17 170 61 3 c52 2 62 0 66 -15 4 -18 -4 -161 -36 -647 -9 -131 -14 -241
-11 -244 3 -3 5 -1 5 4 0 5 5 61 10 124 5 63 16 228 25 365 8 138 18 287 21
333 l7 82 51 0 c82 0 80 4 73 -181 -3 -92 -10 -166 -16 -172 -15 -15 -14 -27
3 -27 10 0 16 18 20 63 7 83 18 397 13 397 -1 0 -8 -5 -15 -12z"/>
<path d="M4502 408 c-7 -7 -12 -18 -12 -25 0 -9 -19 -13 -68 -13 -44 0 -75 -5
-88 -15 -17 -13 -9 -14 84 -15 l102 0 0 40 c0 44 -1 45 -18 28z"/>
<path d="M4969 1400 c-3 -8 1 -41 9 -75 20 -85 11 -241 -19 -320 -27 -73 -101
-157 -120 -137 -19 18 -67 15 -77 -5 -5 -10 -12 -85 -16 -168 -4 -82 -9 -172
-12 -200 -3 -33 -2 -45 4 -35 5 8 12 71 16 140 12 232 15 250 42 250 43 0 72
-18 82 -52 6 -18 20 -100 32 -182 11 -83 23 -152 27 -155 8 -8 -4 95 -28 237
-24 145 -24 154 1 170 53 33 92 177 93 342 0 108 -21 227 -34 190z"/>
<path d="M4730 1382 c-21 -7 -9 -22 19 -22 38 0 40 -11 29 -175 -5 -75 -8
-155 -6 -178 2 -23 9 47 17 156 l14 197 48 0 c26 0 59 -4 73 -10 20 -7 26 -6
26 4 0 29 -28 37 -119 34 -50 -2 -95 -4 -101 -6z"/>
<path d="M4816 1306 c-3 -23 -8 -86 -11 -141 -3 -55 -8 -124 -12 -152 l-5 -53
45 0 c38 0 49 5 70 30 35 41 50 117 46 227 -5 109 -15 125 -83 128 l-45 2 -5
-41z"/>
<path d="M4770 390 c-8 -15 -21 -20 -48 -20 -21 0 -47 -7 -58 -15 -17 -13 -12
-14 59 -15 l77 0 0 35 c0 39 -14 46 -30 15z"/>
<path d="M4981 391 c-6 -10 -22 -22 -36 -25 -38 -10 -30 -26 14 -26 32 0 40 4
45 23 13 47 -3 67 -23 28z"/>
<path d="M5233 1425 c-7 -8 -13 -19 -13 -25 0 -5 -9 -10 -19 -10 -11 0 -23 -4
-26 -10 -3 -5 -19 -7 -34 -4 -16 4 -32 1 -35 -5 -5 -7 2 -11 18 -11 39 0 44
-23 34 -160 -34 -459 -37 -715 -10 -742 9 -9 9 -3 2 23 -15 52 -12 236 10 544
11 154 20 292 20 308 0 24 4 27 35 27 34 0 35 1 35 40 0 45 0 45 -17 25z"/>
<path d="M5451 1418 c-15 -30 -56 -49 -70 -35 -7 7 -19 6 -38 -3 l-28 -14 40
-5 c39 -6 40 -7 43 -51 4 -51 -12 -333 -34 -588 -18 -210 -39 -285 -94 -343
-36 -38 -42 -41 -75 -35 -42 8 -46 -6 -9 -31 25 -16 28 -16 62 3 45 24 86 101
107 200 8 38 24 205 35 370 35 520 29 474 56 474 21 0 24 5 24 40 0 46 -2 48
-19 18z"/>
<path d="M6220 1410 c-9 -17 -21 -20 -70 -20 -37 0 -60 -5 -64 -12 -5 -10 -7
-10 -12 0 -3 7 -26 12 -59 12 -30 0 -57 -5 -63 -12 -5 -7 -17 -91 -26 -187 -9
-95 -21 -182 -26 -191 -7 -13 -6 -20 4 -23 10 -4 15 10 19 56 3 34 12 121 18
193 l13 131 63 2 63 2 0 -60 c0 -51 -12 -251 -46 -751 -4 -52 -3 -92 1 -88 6
6 18 158 44 588 6 91 13 198 17 238 l6 72 51 0 c83 0 81 5 72 -184 -4 -91 -11
-169 -16 -172 -14 -8 -11 -24 5 -24 15 0 19 44 31 318 6 130 0 158 -25 112z"/>
<path d="M6094 395 c-14 -22 -23 -25 -78 -25 -39 0 -69 -5 -82 -15 -17 -13 -9
-14 84 -15 l102 0 0 40 c0 47 -4 49 -26 15z"/>
<path d="M6594 1415 c-12 -19 -25 -25 -51 -25 -19 0 -43 -5 -54 -10 -13 -7
-19 -7 -19 0 0 15 -84 12 -106 -5 -17 -13 -13 -14 49 -15 l67 0 0 -67 c0 -37
-5 -130 -10 -207 -12 -166 -27 -389 -36 -536 -3 -58 -3 -102 0 -99 4 3 13 109
21 235 9 126 22 325 30 443 8 118 15 218 15 223 0 4 27 8 60 8 l60 0 0 40 c0
47 -4 49 -26 15z"/>
<path d="M6528 390 c-11 -18 -24 -20 -114 -20 -78 0 -104 -3 -114 -15 -11 -13
3 -15 119 -15 l131 0 0 35 c0 40 -5 43 -22 15z"/>
<path d="M7463 1425 c-7 -8 -13 -19 -13 -25 0 -11 -18 -14 -66 -11 -18 1 -36
-4 -44 -13 -11 -14 -7 -16 28 -16 31 0 42 -5 47 -19 5 -16 -36 -715 -50 -851
-7 -68 -24 -130 -42 -151 -7 -8 -13 -19 -13 -22 0 -13 51 -7 55 6 2 6 9 91 15
187 6 96 19 317 30 490 11 173 22 325 25 338 3 14 13 22 25 22 17 0 20 7 20
40 0 45 0 45 -17 25z"/>
<path d="M7206 1423 c-3 -3 -6 -15 -6 -26 0 -16 -5 -19 -32 -15 -18 3 -39 3
-45 1 -22 -8 -14 -23 11 -23 14 0 28 -5 32 -11 4 -8 9 -7 15 2 7 12 11 11 24
-2 18 -17 26 -80 70 -519 27 -268 49 -412 39 -255 -3 44 -9 112 -15 150 -8 63
-48 441 -65 623 -6 69 -14 89 -28 75z"/>
<path d="M7170 1294 c0 -10 -4 -77 -10 -149 -19 -251 -40 -600 -39 -645 2 -59
13 79 39 479 12 178 19 326 16 329 -3 3 -6 -3 -6 -14z"/>
<path d="M7174 395 c-13 -20 -24 -25 -59 -25 -48 0 -75 -8 -75 -21 0 -5 36 -9
80 -9 l80 0 0 40 c0 47 -4 49 -26 15z"/>
<path d="M8540 1390 c0 -8 7 -40 15 -70 28 -106 15 -236 -34 -331 -18 -35 -25
-62 -20 -70 10 -17 11 -16 45 66 28 67 29 77 29 220 0 127 -3 154 -17 175 -11
15 -18 19 -18 10z"/>
<path d="M8299 1374 c-9 -11 -6 -14 19 -14 19 0 32 -6 36 -17 4 -9 2 -88 -5
-174 -6 -86 -9 -163 -7 -171 5 -14 13 61 26 247 l7 110 48 3 c28 2 60 -3 77
-12 33 -16 38 -10 16 20 -12 16 -28 19 -110 20 -70 1 -98 -2 -107 -12z"/>
<path d="M8386 1300 c-3 -25 -9 -107 -12 -182 l-7 -138 42 0 c81 0 121 75 121
226 0 87 -21 132 -64 138 -66 9 -74 5 -80 -44z"/>
<path d="M8344 895 c-10 -7 -17 -60 -24 -180 -5 -93 -12 -189 -15 -212 -2 -24
-1 -43 4 -43 4 0 11 57 15 128 4 70 9 162 13 205 l6 77 57 0 c43 0 64 -5 84
-21 37 -29 46 -15 12 20 -23 24 -38 30 -84 33 -30 1 -61 -1 -68 -7z"/>
<path d="M8534 875 c41 -156 29 -332 -29 -431 -39 -67 -55 -74 -166 -74 -74 0
-100 -4 -109 -15 -11 -13 2 -15 107 -15 114 0 121 1 147 25 60 56 90 184 84
358 -3 83 -8 120 -21 142 -10 17 -15 21 -13 10z"/>
<path d="M8356 818 c-5 -36 -26 -329 -26 -359 0 -12 106 -12 129 1 33 17 54
88 58 200 4 88 1 111 -14 140 -21 41 -54 60 -105 60 -36 0 -37 -1 -42 -42z"/>
<path d="M8804 1416 c-7 -17 -56 -36 -95 -36 -15 0 -31 -4 -34 -10 -3 -6 5
-10 19 -10 14 0 30 -8 35 -17 6 -12 2 -115 -10 -288 -23 -334 -24 -538 -3
-580 8 -16 12 -21 8 -10 -16 55 -14 232 6 540 12 186 24 343 26 347 3 4 18 8
33 8 24 0 29 5 33 30 5 33 -8 52 -18 26z"/>
<path d="M9011 1404 c-19 -22 -28 -25 -60 -19 -28 5 -41 2 -51 -9 -11 -14 -8
-16 23 -16 19 0 39 -6 45 -12 10 -13 -16 -493 -37 -699 -15 -136 -43 -220 -91
-270 -35 -37 -43 -41 -75 -36 -41 7 -45 -6 -9 -29 23 -16 28 -16 60 -1 96 46
125 187 159 771 8 142 18 262 21 267 3 5 14 9 25 9 15 0 19 7 19 35 0 19 -1
35 -3 35 -2 0 -13 -12 -26 -26z"/>
<path d="M9773 1425 c-7 -8 -13 -19 -13 -25 0 -5 -18 -10 -41 -10 -22 0 -49
-5 -60 -10 -13 -7 -19 -7 -19 0 0 15 -84 12 -106 -5 -17 -13 -14 -14 42 -15
39 0 66 -5 73 -13 8 -10 8 -52 1 -153 -27 -362 -49 -738 -46 -742 8 -8 15 62
31 308 8 135 20 325 27 423 l12 177 58 0 58 0 0 40 c0 45 0 45 -17 25z"/>
<path d="M9700 390 c-10 -18 -21 -20 -114 -20 -80 0 -106 -3 -116 -15 -11 -13
3 -15 118 -15 126 0 130 1 136 23 13 48 -3 66 -24 27z"/>
<path d="M9984 1419 c-6 -8 -14 -22 -17 -31 -6 -17 -22 -19 -44 -5 -12 8 -43
-1 -43 -12 0 -11 69 -28 78 -19 20 20 37 -29 49 -136 18 -168 41 -383 59 -556
15 -148 24 -197 24 -134 0 16 -7 88 -15 159 -8 72 -28 263 -45 425 -37 357
-32 327 -46 309z"/>
<path d="M10222 1406 c-17 -20 -28 -24 -54 -20 -21 4 -40 0 -53 -10 -19 -15
-18 -15 22 -16 36 0 43 -3 49 -24 7 -31 -43 -838 -56 -896 -6 -25 -13 -56 -15
-69 -2 -14 -11 -28 -19 -33 -25 -14 -19 -28 12 -28 l29 0 7 102 c15 219 46
698 51 788 9 143 13 160 35 160 16 0 20 7 20 35 0 19 -1 35 -3 35 -2 0 -13
-11 -25 -24z"/>
<path d="M9940 1279 c0 -8 -11 -180 -25 -384 -25 -367 -28 -442 -21 -434 2 2
9 78 15 169 34 508 42 652 37 657 -3 4 -6 0 -6 -8z"/>
<path d="M9944 395 c-14 -21 -24 -25 -64 -25 -30 0 -52 -6 -60 -15 -11 -13 -2
-15 69 -15 l81 0 0 40 c0 47 -4 49 -26 15z"/>
<path d="M10588 1411 c-12 -17 -29 -20 -142 -23 -87 -2 -134 -7 -145 -16 -14
-11 -11 -13 20 -10 23 2 36 -1 38 -9 5 -31 5 -77 -1 -213 -3 -81 -3 -125 2
-100 4 25 11 107 15 183 l7 137 105 0 104 0 -3 -117 c-2 -65 -7 -126 -12 -135
-6 -13 -4 -18 6 -18 12 0 16 29 22 155 4 86 9 162 12 170 9 22 -13 18 -28 -4z"/>
<path d="M10490 1043 c0 -26 -7 -66 -15 -88 -16 -40 -17 -40 -66 -41 -27 0
-54 -5 -59 -10 -5 -5 -14 -79 -19 -164 -6 -85 -14 -184 -17 -219 -4 -39 -2
-61 4 -57 5 3 12 61 16 128 3 68 9 160 13 206 l6 82 52 0 c65 0 79 -14 69 -67
-4 -21 -11 -46 -16 -55 -6 -13 -5 -18 5 -18 9 0 16 16 20 43 10 73 20 307 13
307 -3 0 -6 -21 -6 -47z"/>
<path d="M10556 628 c-3 -29 -6 -76 -6 -104 0 -28 -7 -74 -15 -102 l-16 -52
-133 0 c-107 0 -136 -3 -146 -15 -11 -13 6 -15 148 -15 l160 0 6 78 c14 190
18 262 13 262 -2 0 -7 -24 -11 -52z"/>
<path d="M7930 1323 c-17 -22 -23 -25 -30 -13 -6 8 -10 18 -10 23 0 13 -48 7
-64 -8 -35 -35 -47 -167 -26 -290 6 -33 15 -91 20 -130 18 -130 36 -212 46
-203 3 3 -9 93 -27 199 -34 211 -39 316 -15 373 23 55 62 49 89 -14 l14 -35
12 45 c7 25 14 53 17 63 7 24 -1 21 -26 -10z"/>
<path d="M7972 868 c-7 -7 -12 -16 -12 -22 0 -5 -6 -17 -14 -25 -7 -9 -21 -47
-29 -86 -8 -38 -22 -88 -30 -110 -18 -47 -10 -166 11 -173 10 -3 11 10 7 60
-4 46 0 92 18 173 21 97 26 110 45 113 18 3 22 10 22 43 0 43 -1 44 -18 27z"/>
<path d="M7766 848 c-30 -48 -49 -142 -50 -253 -1 -60 4 -118 9 -127 7 -12 10
23 10 115 1 110 4 142 23 191 12 32 29 67 38 77 16 17 16 19 1 19 -9 0 -23
-10 -31 -22z"/>
<path d="M7767 753 c-19 -66 -23 -245 -7 -287 13 -34 33 -25 55 25 17 37 17
44 0 167 -9 70 -21 133 -25 140 -4 9 -13 -8 -23 -45z"/>
<path d="M7843 446 c-26 -45 -69 -86 -89 -86 -31 0 -39 -17 -14 -30 40 -22 79
10 113 93 15 35 7 53 -10 23z"/>
<path d="M7938 391 c-7 -10 -23 -21 -35 -25 -36 -11 -27 -26 16 -26 32 0 40 4
45 23 13 49 -1 64 -26 28z"/>
<path d="M12441 926 c-73 -26 -127 -111 -154 -242 -16 -78 -15 -205 2 -247 16
-40 14 -54 -4 -31 -14 18 -14 17 -5 -8 15 -44 38 -74 66 -86 30 -14 84 -15
116 -3 32 12 128 100 128 117 0 20 -4 18 -47 -24 -21 -21 -51 -46 -66 -56 -32
-20 -119 -24 -125 -7 -2 6 -11 11 -20 11 -15 0 -15 2 -2 10 13 8 12 10 -3 10
-10 0 -15 5 -12 10 4 6 10 8 15 5 5 -3 2 8 -6 24 -59 118 -21 376 68 458 49
46 92 49 135 10 12 -10 26 -16 32 -13 5 4 12 2 16 -4 3 -5 0 -10 -7 -10 -9 0
-10 -3 -2 -8 12 -7 12 -78 0 -89 -12 -13 -5 -21 14 -16 17 4 20 14 20 58 0 29
2 74 5 101 l5 49 -15 -32 c-19 -41 -29 -41 -65 -3 -31 33 -39 34 -89 16z"/>
<path d="M12540 921 c0 -5 5 -13 10 -16 6 -3 10 -2 10 4 0 5 -4 13 -10 16 -5
3 -10 2 -10 -4z"/>
<path d="M11500 908 c-25 -11 -25 -11 10 -17 l35 -6 -2 -55 c-1 -30 -5 -90
-10 -133 -5 -43 -6 -80 -2 -82 9 -6 14 25 30 164 l13 113 64 -4 c54 -3 68 -8
85 -29 11 -13 24 -23 28 -22 12 4 11 -94 -1 -139 -23 -80 -64 -106 -175 -112
-37 -2 -50 -6 -55 -22 -12 -32 -22 -201 -11 -185 5 8 13 52 16 97 l7 82 72 4
c85 4 115 22 148 88 29 59 37 170 14 223 -16 40 -38 51 -29 15 6 -23 6 -23
-14 1 -17 21 -29 24 -89 26 -38 0 -73 -4 -77 -9 -6 -8 -10 -7 -14 2 -6 14 -10
14 -43 0z"/>
<path d="M11586 858 c-6 -20 -26 -182 -26 -206 0 -19 5 -22 46 -22 60 0 82 13
105 63 23 51 24 108 4 147 -14 28 -20 30 -71 30 -35 0 -56 -4 -58 -12z"/>
<path d="M11593 352 c-6 -4 -42 -7 -80 -6 -61 0 -93 -10 -93 -30 0 -3 41 -6
90 -6 70 0 92 3 96 15 8 20 1 36 -13 27z"/>
<path d="M12054 925 c-4 -10 -16 -13 -37 -11 -18 2 -40 0 -49 -5 -12 -7 -18
-6 -18 1 0 12 -49 5 -64 -10 -7 -7 2 -10 27 -10 25 0 40 -5 44 -15 3 -9 -4
-93 -16 -188 -26 -215 -36 -334 -26 -325 7 6 64 453 65 506 0 19 5 22 45 22
41 0 45 2 45 25 0 28 -8 33 -16 10z"/>
<path d="M12166 582 c-3 -5 -13 -56 -21 -113 -9 -56 -20 -108 -25 -114 -7 -8
-53 -11 -142 -10 -124 1 -174 -7 -162 -27 3 -4 77 -8 164 -8 l159 0 6 33 c16
97 34 241 31 244 -2 3 -7 0 -10 -5z"/>
</g>
</svg>
