<?xml version="1.0" encoding="utf-8"?>
<!-- Generator: Adobe Illustrator 24.0.1, SVG Export Plug-In . SVG Version: 6.00 Build 0)  -->
<svg version="1.1" id="Layer_1" xmlns="http://www.w3.org/2000/svg" xmlns:xlink="http://www.w3.org/1999/xlink" x="0px" y="0px"
	 viewBox="0 0 211 56" style="enable-background:new 0 0 211 56;" xml:space="preserve">
<style type="text/css">
	.st0{fill:#0FB7CE;}
</style>
<g>
	<g>
		<path class="st0" d="M65.3,17.2c2.3,0,4.4,0.5,6.1,1.4c1.8,0.9,3.2,2.3,4.2,4.1c1,1.8,1.6,4,1.6,6.7c0,2.7-0.5,5-1.5,6.8
			c-1,1.9-2.4,3.3-4.2,4.3c-1.8,1-3.9,1.5-6.2,1.5H51.8v-0.3l1.9-0.4V17.8l-1.9-0.2v-0.3H65.3z M63.6,17.7c-0.6,0-1.2,0-1.7,0.1
			s-1,0.1-1.3,0.1v22.8l0.7,0.7h2.4c2.2,0,3.8-1.1,4.9-3.2c1.1-2.2,1.6-5.3,1.6-9.3c0-2.3-0.2-4.3-0.7-5.9c-0.5-1.7-1.2-2.9-2.2-3.9
			C66.3,18.2,65.1,17.7,63.6,17.7z"/>
		<path class="st0" d="M78.9,41.9v-0.3l1.9-0.4l9.8-24h4.4l9.4,24l1.8,0.4v0.3H94.5v-0.2l2.4-0.5l-7.5-18.9H89l-1.6,4.4
			c-0.7,1.7-1.1,3.2-1.5,4.7c-0.3,1.5-0.5,2.8-0.5,4c0,1.2,0.2,2.2,0.5,3.2c0.4,0.9,0.9,1.7,1.7,2.2c0.8,0.5,1.8,0.8,3,0.8v0.3H78.9
			z M84.8,31.9v-0.3l8.6-0.6v0.9H84.8z"/>
		<path class="st0" d="M128.4,42.5c-0.9,0-1.7-0.2-2.5-0.5c-0.8-0.3-1.4-0.9-2.1-1.5c-0.6-0.7-1.2-1.5-1.7-2.4
			c-0.5-1.1-1.1-2.3-1.8-3.7c-0.7-1.4-1.4-3-2.2-4.6h-1.9v11.5l1.9,0.4v0.3h-10.7v-0.3l1.9-0.4V17.9l-1.9-0.4v-0.3H122
			c1.9,0,3.6,0.2,4.9,0.6c1.3,0.4,2.3,1.1,2.9,1.9c0.7,0.9,1,1.9,1,3.2c0,1.3-0.4,2.4-1.3,3.4c-0.9,0.9-2.2,1.7-3.9,2.2
			c-1.7,0.5-3.8,0.8-6.2,0.8v0.3c1.1,0,2.1,0.1,3,0.3c0.9,0.2,1.7,0.5,2.4,0.9c0.7,0.4,1.3,0.8,1.8,1.4c0.5,0.6,0.9,1.2,1.2,2
			c0.6,1.3,1.1,2.4,1.5,3.4s0.8,1.7,1.2,2.2c0.3,0.5,0.6,0.9,0.8,1c0.3,0.2,0.5,0.3,0.8,0.2v0.4c-0.4,0.3-0.7,0.5-1.2,0.7
			c-0.4,0.2-0.9,0.3-1.3,0.3C129.1,42.4,128.7,42.5,128.4,42.5z M118.1,28.9c1,0,1.8-0.1,2.5-0.4c0.7-0.3,1.4-0.6,1.9-1.1
			c0.5-0.5,0.9-1.1,1.2-1.8c0.3-0.7,0.4-1.5,0.4-2.4c0-1.2-0.2-2.1-0.6-2.9c-0.4-0.8-0.9-1.4-1.6-1.8c-0.7-0.4-1.6-0.6-2.6-0.6
			c-0.6,0-1.1,0-1.6,0c-0.5,0-0.9,0.1-1.3,0.1v10.8c0.2,0.1,0.5,0.1,0.7,0.1C117.4,28.8,117.7,28.9,118.1,28.9z"/>
		<path class="st0" d="M132.9,41.9v-0.3l2.5-0.4V20.6c0-0.6-0.2-1.1-0.6-1.7c-0.4-0.5-1-1-1.8-1.4v-0.3h8.8l13,17.2h0.6v-4.1
			c0-1.1-0.1-2.1-0.3-3.2c-0.2-1-0.5-2-0.8-3s-0.8-1.9-1.4-2.7c-0.6-0.8-1.2-1.6-2-2.2c-0.7-0.7-1.6-1.2-2.6-1.6v-0.3h10.4v0.3
			l-2.8,0.4v24H152l-15.6-20.4h-0.5v3.9c0,1.4,0.1,2.8,0.3,4.1c0.2,1.3,0.5,2.5,0.9,3.7s1,2.3,1.6,3.3s1.4,1.9,2.3,2.8
			c0.9,0.9,2,1.6,3.2,2.3v0.3H132.9z"/>
		<path class="st0" d="M159.3,41.9v-0.3l1.9-0.4l9.8-24h4.4l9.5,24l1.8,0.4v0.3h-11.8v-0.2l2.4-0.5l-7.5-18.9h-0.4l-1.6,4.4
			c-0.7,1.7-1.1,3.2-1.5,4.7c-0.3,1.5-0.5,2.8-0.5,4c0,1.2,0.2,2.2,0.5,3.2c0.4,0.9,0.9,1.7,1.7,2.2c0.8,0.5,1.8,0.8,3,0.8v0.3
			H159.3z M165.2,31.9v-0.3l8.6-0.6v0.9H165.2z"/>
	</g>
</g>
<g>
	<g>
		<path d="M-83.3,303.9c0,0.1-0.1,0.1-0.2,0.1c-0.1,0-0.1,0.1-0.2,0.1c-0.1,0-0.1,0-0.2,0c-0.1,0-0.2,0-0.3,0
			c-0.1,0-0.2-0.1-0.2-0.1c-0.1,0-0.1-0.1-0.2-0.2c0-0.1-0.1-0.1-0.1-0.2c0-0.1,0-0.2,0.1-0.2c0-0.1,0.1-0.1,0.2-0.2
			c0.1,0,0.1-0.1,0.2-0.1c0.1,0,0.2,0,0.3,0c0.1,0,0.1,0,0.2,0c0.1,0,0.1,0,0.2,0c0.1,0,0.1,0,0.1,0.1l-0.1,0.4h0l-0.1-0.2
			c0-0.1-0.1-0.1-0.1-0.2c0,0-0.1-0.1-0.1-0.1c0,0-0.1,0-0.2,0c0,0-0.1,0-0.1,0c0,0-0.1,0.1-0.1,0.1c0,0,0,0.1-0.1,0.1
			c0,0.1,0,0.1,0,0.2c0,0.1,0,0.1,0,0.2s0.1,0.1,0.1,0.2c0,0,0.1,0.1,0.2,0.1c0.1,0,0.2,0,0.3,0c0.1,0,0.1,0,0.2,0
			C-83.4,304-83.4,303.9-83.3,303.9L-83.3,303.9z"/>
		<path d="M-82.4,303c0.1,0,0.2,0,0.3,0s0.2,0.1,0.2,0.1s0.1,0.1,0.2,0.2c0,0.1,0.1,0.2,0.1,0.2c0,0.1,0,0.2-0.1,0.2
			c0,0.1-0.1,0.1-0.1,0.2c-0.1,0-0.1,0.1-0.2,0.1c-0.1,0-0.2,0-0.3,0c-0.1,0-0.2,0-0.3,0c-0.1,0-0.2-0.1-0.2-0.1
			c-0.1,0-0.1-0.1-0.1-0.2c0-0.1-0.1-0.1-0.1-0.2c0-0.1,0-0.2,0.1-0.2s0.1-0.1,0.1-0.2c0.1,0,0.1-0.1,0.2-0.1S-82.5,303-82.4,303z
			 M-82.4,303.1c-0.1,0-0.1,0-0.1,0c0,0-0.1,0.1-0.1,0.1c0,0,0,0.1-0.1,0.2c0,0.1,0,0.1,0,0.2s0,0.2,0,0.2s0,0.1,0.1,0.2
			c0,0,0.1,0.1,0.1,0.1c0,0,0.1,0,0.1,0c0.1,0,0.1,0,0.1,0c0,0,0.1-0.1,0.1-0.1c0,0,0-0.1,0.1-0.2c0-0.1,0-0.1,0-0.2
			c0-0.1,0-0.2,0-0.2c0-0.1,0-0.1-0.1-0.2c0,0-0.1-0.1-0.1-0.1C-82.3,303.1-82.4,303.1-82.4,303.1z"/>
		<path d="M-81.6,304.1L-81.6,304.1l0.1,0v-0.9c0,0,0,0,0-0.1c0,0-0.1,0-0.1-0.1v0h0.5l0.7,0.7h0v-0.2c0,0,0-0.1,0-0.1
			c0,0,0-0.1,0-0.1c0,0,0-0.1-0.1-0.1c0,0-0.1-0.1-0.1-0.1s-0.1,0-0.1-0.1v0h0.6v0l-0.2,0v1h-0.2l-0.9-0.9h0v0.2c0,0.1,0,0.1,0,0.2
			s0,0.1,0.1,0.2c0,0,0.1,0.1,0.1,0.1c0,0,0.1,0.1,0.1,0.1c0.1,0,0.1,0.1,0.2,0.1v0H-81.6z"/>
		<path d="M-79.4,304.1c-0.1,0-0.1,0-0.2,0c-0.1,0-0.1,0-0.2,0s-0.1,0-0.2,0l0-0.4h0l0.1,0.2c0,0,0.1,0.1,0.1,0.1
			c0,0,0.1,0.1,0.1,0.1C-79.5,304.1-79.4,304.1-79.4,304.1c0.1,0,0.1,0,0.2,0s0.1,0,0.1,0c0,0,0,0,0-0.1c0,0,0-0.1,0-0.1
			c0,0-0.1-0.1-0.1-0.1s-0.1-0.1-0.2-0.1c-0.1-0.1-0.2-0.1-0.3-0.1c-0.1,0-0.1-0.1-0.2-0.1c0,0,0-0.1,0-0.1c0,0,0-0.1,0-0.1
			c0,0,0.1-0.1,0.1-0.1c0.1,0,0.1,0,0.2-0.1c0.1,0,0.2,0,0.2,0c0.1,0,0.2,0,0.2,0c0.1,0,0.1,0,0.2,0c0.1,0,0.1,0,0.1,0.1l-0.1,0.3h0
			l-0.1-0.1c0-0.1-0.1-0.1-0.1-0.2s-0.1-0.1-0.1-0.1c0,0-0.1,0-0.2,0c-0.1,0-0.1,0-0.1,0s-0.1,0-0.1,0c0,0,0,0,0,0.1
			c0,0,0,0.1,0,0.1c0,0,0.1,0.1,0.1,0.1c0.1,0,0.2,0.1,0.3,0.1c0.1,0,0.2,0.1,0.2,0.1c0.1,0,0.1,0.1,0.1,0.1s0.1,0.1,0.1,0.1
			c0,0,0,0.1,0,0.1c0,0,0,0.1,0,0.1c0,0-0.1,0.1-0.1,0.1c0,0-0.1,0-0.1,0.1s-0.1,0-0.2,0C-79.3,304.1-79.4,304.1-79.4,304.1z"/>
		<path d="M-78.3,304.1L-78.3,304.1l0.1,0v-1h-0.1c0,0-0.1,0-0.1,0c0,0-0.1,0-0.1,0.1c0,0,0,0.1-0.1,0.1l-0.1,0.2h0l-0.1-0.4h1.4
			l-0.1,0.4h0l-0.1-0.2c0,0,0-0.1-0.1-0.1c0,0,0,0-0.1-0.1c0,0-0.1,0-0.1,0h-0.1v1l0.1,0v0H-78.3z"/>
		<path d="M-76,304.1c-0.1,0-0.1,0-0.1,0c0,0-0.1,0-0.1-0.1c0,0-0.1-0.1-0.1-0.1c0,0-0.1-0.1-0.1-0.2c0-0.1-0.1-0.1-0.1-0.2h-0.1
			v0.5l0.1,0v0h-0.6v0l0.1,0v-1l-0.1,0v0h0.8c0.1,0,0.2,0,0.3,0s0.1,0,0.2,0.1s0.1,0.1,0.1,0.1c0,0.1,0,0.1-0.1,0.1
			c-0.1,0-0.1,0.1-0.2,0.1s-0.2,0-0.4,0v0c0.1,0,0.1,0,0.2,0c0.1,0,0.1,0,0.1,0c0,0,0.1,0,0.1,0.1c0,0,0.1,0.1,0.1,0.1
			c0,0.1,0.1,0.1,0.1,0.1c0,0,0,0.1,0.1,0.1c0,0,0,0,0,0c0,0,0,0,0,0v0c0,0,0,0-0.1,0S-75.9,304.1-76,304.1
			C-76,304.1-76,304.1-76,304.1z M-76.6,303.5c0.1,0,0.1,0,0.1,0s0.1,0,0.1,0c0,0,0.1,0,0.1-0.1c0,0,0-0.1,0-0.1c0,0,0-0.1,0-0.1
			s-0.1-0.1-0.1-0.1c0,0-0.1,0-0.1,0c0,0-0.1,0-0.1,0c0,0-0.1,0-0.1,0L-76.6,303.5C-76.7,303.5-76.7,303.5-76.6,303.5
			C-76.6,303.5-76.6,303.5-76.6,303.5z"/>
		<path d="M-75,304.1c-0.2,0-0.4,0-0.5-0.1c-0.1-0.1-0.2-0.2-0.2-0.3v-0.6l-0.1,0v0h0.6v0l-0.1,0v0.5c0,0.1,0,0.2,0.1,0.3
			c0.1,0.1,0.2,0.1,0.3,0.1c0.1,0,0.2,0,0.3-0.1c0.1-0.1,0.1-0.1,0.1-0.2v-0.1c0,0,0-0.1,0-0.1c0-0.1,0-0.1-0.1-0.1
			c0,0-0.1-0.1-0.1-0.1c0,0-0.1-0.1-0.2-0.1v0h0.6v0l-0.1,0v0.6c0,0.1,0,0.3-0.1,0.3C-74.7,304.1-74.8,304.1-75,304.1z"/>
		<path d="M-72.9,303.9c0,0.1-0.1,0.1-0.2,0.1c-0.1,0-0.1,0.1-0.2,0.1c-0.1,0-0.1,0-0.2,0c-0.1,0-0.2,0-0.3,0
			c-0.1,0-0.2-0.1-0.2-0.1c-0.1,0-0.1-0.1-0.2-0.2c0-0.1-0.1-0.1-0.1-0.2c0-0.1,0-0.2,0.1-0.2c0-0.1,0.1-0.1,0.2-0.2
			c0.1,0,0.1-0.1,0.2-0.1c0.1,0,0.2,0,0.3,0c0.1,0,0.1,0,0.2,0c0.1,0,0.1,0,0.2,0c0.1,0,0.1,0,0.1,0.1l-0.1,0.4h0l-0.1-0.2
			c0-0.1-0.1-0.1-0.1-0.2c0,0-0.1-0.1-0.1-0.1c0,0-0.1,0-0.2,0c0,0-0.1,0-0.1,0c0,0-0.1,0.1-0.1,0.1c0,0,0,0.1-0.1,0.1
			c0,0.1,0,0.1,0,0.2c0,0.1,0,0.1,0,0.2s0.1,0.1,0.1,0.2c0,0,0.1,0.1,0.2,0.1c0.1,0,0.2,0,0.3,0c0.1,0,0.1,0,0.2,0
			C-73.1,304-73,303.9-72.9,303.9L-72.9,303.9z"/>
		<path d="M-72.4,304.1L-72.4,304.1l0.1,0v-1h-0.1c0,0-0.1,0-0.1,0c0,0-0.1,0-0.1,0.1c0,0,0,0.1-0.1,0.1l-0.1,0.2h0l-0.1-0.4h1.4
			l-0.1,0.4h0l-0.1-0.2c0,0,0-0.1-0.1-0.1c0,0,0,0-0.1-0.1c0,0-0.1,0-0.1,0h-0.1v1l0.1,0v0H-72.4z"/>
		<path d="M-70.7,303.1L-70.7,303.1l-0.1,0v1l0.1,0v0h-0.6v0l0.1,0v-1l-0.1,0v0H-70.7z"/>
		<path d="M-69.8,303c0.1,0,0.2,0,0.3,0s0.2,0.1,0.2,0.1s0.1,0.1,0.2,0.2c0,0.1,0.1,0.2,0.1,0.2c0,0.1,0,0.2-0.1,0.2
			c0,0.1-0.1,0.1-0.1,0.2c-0.1,0-0.1,0.1-0.2,0.1c-0.1,0-0.2,0-0.3,0c-0.1,0-0.2,0-0.3,0c-0.1,0-0.2-0.1-0.2-0.1
			c-0.1,0-0.1-0.1-0.1-0.2c0-0.1-0.1-0.1-0.1-0.2c0-0.1,0-0.2,0.1-0.2s0.1-0.1,0.1-0.2c0.1,0,0.1-0.1,0.2-0.1S-69.9,303-69.8,303z
			 M-69.8,303.1c-0.1,0-0.1,0-0.1,0c0,0-0.1,0.1-0.1,0.1c0,0,0,0.1-0.1,0.2c0,0.1,0,0.1,0,0.2s0,0.2,0,0.2s0,0.1,0.1,0.2
			c0,0,0.1,0.1,0.1,0.1c0,0,0.1,0,0.1,0c0.1,0,0.1,0,0.1,0c0,0,0.1-0.1,0.1-0.1c0,0,0-0.1,0.1-0.2c0-0.1,0-0.1,0-0.2
			c0-0.1,0-0.2,0-0.2c0-0.1,0-0.1-0.1-0.2c0,0-0.1-0.1-0.1-0.1C-69.7,303.1-69.8,303.1-69.8,303.1z"/>
		<path d="M-69,304.1L-69,304.1l0.1,0v-0.9c0,0,0,0,0-0.1c0,0-0.1,0-0.1-0.1v0h0.5l0.7,0.7h0v-0.2c0,0,0-0.1,0-0.1c0,0,0-0.1,0-0.1
			c0,0,0-0.1-0.1-0.1c0,0-0.1-0.1-0.1-0.1s-0.1,0-0.1-0.1v0h0.6v0l-0.2,0v1h-0.2l-0.9-0.9h0v0.2c0,0.1,0,0.1,0,0.2s0,0.1,0.1,0.2
			c0,0,0.1,0.1,0.1,0.1c0,0,0.1,0.1,0.1,0.1c0.1,0,0.1,0.1,0.2,0.1v0H-69z"/>
		<path d="M-65.9,303.1c0.1,0,0.2,0,0.3,0c0.1,0,0.1,0.1,0.2,0.1s0.1,0.1,0.1,0.1c0,0.1-0.1,0.2-0.2,0.2c-0.1,0.1-0.3,0.1-0.5,0.1
			c0,0-0.1,0-0.1,0c0,0-0.1,0-0.1,0v0c0,0,0.1,0,0.1,0c0.1,0,0.2,0,0.2-0.1s0.1-0.1,0.1-0.2c0-0.1,0-0.1,0-0.1
			C-65.8,303.2-65.8,303.1-65.9,303.1c0,0-0.1,0-0.1,0c0,0,0,0-0.1,0c0,0,0,0-0.1,0c0,0,0,0,0,0v1l0.1,0v0h-0.6v0l0.1,0v-1l-0.1,0v0
			H-65.9z"/>
		<path d="M-65.2,304.1L-65.2,304.1l0.1,0v-1l-0.1,0v0h0.6v0l-0.1,0v1h0.2c0,0,0.1,0,0.1,0s0.1,0,0.1-0.1c0,0,0.1-0.1,0.1-0.1
			l0.1-0.2h0l0.1,0.4H-65.2z"/>
		<path d="M-62.6,303.9c0,0.1-0.1,0.1-0.2,0.1c-0.1,0-0.1,0.1-0.2,0.1c-0.1,0-0.1,0-0.2,0c-0.1,0-0.2,0-0.3,0
			c-0.1,0-0.2-0.1-0.2-0.1c-0.1,0-0.1-0.1-0.2-0.2c0-0.1-0.1-0.1-0.1-0.2c0-0.1,0-0.2,0.1-0.2c0-0.1,0.1-0.1,0.2-0.2
			c0.1,0,0.1-0.1,0.2-0.1c0.1,0,0.2,0,0.3,0c0.1,0,0.1,0,0.2,0c0.1,0,0.1,0,0.2,0c0.1,0,0.1,0,0.1,0.1l-0.1,0.4h0l-0.1-0.2
			c0-0.1-0.1-0.1-0.1-0.2c0,0-0.1-0.1-0.1-0.1c0,0-0.1,0-0.2,0c0,0-0.1,0-0.1,0c0,0-0.1,0.1-0.1,0.1c0,0,0,0.1-0.1,0.1
			c0,0.1,0,0.1,0,0.2c0,0.1,0,0.1,0,0.2s0.1,0.1,0.1,0.2c0,0,0.1,0.1,0.2,0.1c0.1,0,0.2,0,0.3,0c0.1,0,0.1,0,0.2,0
			C-62.7,304-62.6,303.9-62.6,303.9L-62.6,303.9z"/>
	</g>
</g>
</svg>
