<?xml version="1.0" encoding="utf-8"?>
<!-- Generator: Adobe Illustrator 24.0.1, SVG Export Plug-In . SVG Version: 6.00 Build 0)  -->
<svg version="1.1" id="Layer_1" xmlns="http://www.w3.org/2000/svg" xmlns:xlink="http://www.w3.org/1999/xlink" x="0px" y="0px"
	 viewBox="0 0 50 50" style="enable-background:new 0 0 50 50;" xml:space="preserve">
<style type="text/css">
	.st0{fill-rule:evenodd;clip-rule:evenodd;fill:#4C4C4C;}
	.st1{fill-rule:evenodd;clip-rule:evenodd;fill:#7E7E7E;}
	.st2{fill-rule:evenodd;clip-rule:evenodd;fill:#5D5D5D;}
	.st3{fill-rule:evenodd;clip-rule:evenodd;fill:#D4D4D4;}
	.st4{fill-rule:evenodd;clip-rule:evenodd;fill:#B7B7B7;}
	.st5{fill-rule:evenodd;clip-rule:evenodd;fill:#ECECEC;}
	.st6{fill-rule:evenodd;clip-rule:evenodd;fill:#A4A4A5;}
	.st7{fill-rule:evenodd;clip-rule:evenodd;fill:#DEDEDE;}
	.st8{fill:none;}
</style>
<g id="Layer_x0020_1">
	<g id="_307572736">
		<rect id="_459940136" x="33.3" y="36.8" class="st0" width="5.3" height="9.8"/>
		<polygon id="_459939968" class="st1" points="4.5,22.8 27.4,22.8 28.3,22.8 28.3,23.6 28.3,45.7 28.3,46.6 27.4,46.6 4.5,46.6 
			3.6,46.6 3.6,45.7 3.6,23.6 3.6,22.8 		"/>
		<path id="_459939800" class="st2" d="M45.3,4.9v40.8v0.9h-0.9h-6v-0.9v-7.7v-0.9h-0.9h-3.4h-0.9v0.9v7.7v0.9h-6h-0.9v-0.9V12.4
			l0.1-0.5c1.7-2.8,4.1-4.8,7.1-6c3-1.3,6.5-1.8,10.6-1.8h0.9L45.3,4.9L45.3,4.9z"/>
		<polygon id="_459939632" class="st3" points="7.9,30.4 11.3,30.4 11.3,32.1 7.9,32.1 		"/>
		<polygon id="_459939464" class="st4" points="7.9,33.8 11.3,33.8 11.3,35.5 7.9,35.5 		"/>
		<polygon id="_459939296" class="st3" points="7.9,37.2 11.3,37.2 11.3,38.9 7.9,38.9 		"/>
		<polygon id="_459939128" class="st3" points="13.8,27 18.1,27 18.1,28.7 13.8,28.7 		"/>
		<polygon id="_459938960" class="st3" points="13.8,30.4 18.1,30.4 18.1,32.1 13.8,32.1 		"/>
		<polygon id="_459938792" class="st3" points="13.8,33.8 18.1,33.8 18.1,35.5 13.8,35.5 		"/>
		<polygon id="_459938624" class="st5" points="13.8,37.2 18.1,37.2 18.1,38.9 13.8,38.9 		"/>
		<polygon id="_459938456" class="st3" points="20.6,27 24,27 24,28.7 20.6,28.7 		"/>
		<polygon id="_459938288" class="st6" points="20.6,30.4 24,30.4 24,32.1 20.6,32.1 		"/>
		<polygon id="_459938120" class="st3" points="20.6,33.8 24,33.8 24,35.5 20.6,35.5 		"/>
		<polygon id="_459937952" class="st3" points="20.6,37.2 24,37.2 24,38.9 20.6,38.9 		"/>
		<polygon id="_459937784" class="st3" points="7.9,40.6 11.3,40.6 11.3,42.3 7.9,42.3 		"/>
		<polygon id="_459937616" class="st3" points="13.8,40.6 18.1,40.6 18.1,42.3 13.8,42.3 		"/>
		<polygon id="_459937448" class="st3" points="20.6,40.6 24,40.6 24,42.3 20.6,42.3 		"/>
		<polygon id="_307578328" class="st3" points="7.9,27 11.3,27 11.3,28.7 7.9,28.7 		"/>
		<polygon id="_307578184" class="st7" points="33.4,16.8 35.1,16.8 35.1,18.5 33.4,18.5 		"/>
		<polygon id="_307578016" class="st7" points="36.8,16.8 38.5,16.8 38.5,18.5 36.8,18.5 		"/>
		<polygon id="_307577848" class="st7" points="40.2,16.8 41.9,16.8 41.9,18.5 40.2,18.5 		"/>
		<polygon id="_307577680" class="st7" points="30,20.2 31.7,20.2 31.7,21.9 30,21.9 		"/>
		<polygon id="_307577512" class="st7" points="30,23.6 31.7,23.6 31.7,25.3 30,25.3 		"/>
		<polygon id="_307577344" class="st7" points="30,27 31.7,27 31.7,28.7 30,28.7 		"/>
		<polygon id="_307577176" class="st7" points="30,30.4 31.7,30.4 31.7,32.1 30,32.1 		"/>
		<polygon id="_307577008" class="st7" points="33.4,20.2 35.1,20.2 35.1,21.9 33.4,21.9 		"/>
		<polygon id="_307576840" class="st7" points="33.4,23.6 35.1,23.6 35.1,25.3 33.4,25.3 		"/>
		<polygon id="_307576672" class="st7" points="33.4,27 35.1,27 35.1,28.7 33.4,28.7 		"/>
		<polygon id="_307576504" class="st7" points="33.4,30.4 35.1,30.4 35.1,32.1 33.4,32.1 		"/>
		<polygon id="_307576336" class="st7" points="33.4,33.8 35.1,33.8 35.1,35.5 33.4,35.5 		"/>
		<polygon id="_307576168" class="st7" points="36.8,20.2 38.5,20.2 38.5,21.9 36.8,21.9 		"/>
		<polygon id="_307576000" class="st7" points="36.8,23.6 38.5,23.6 38.5,25.3 36.8,25.3 		"/>
		<polygon id="_307575832" class="st7" points="36.8,27 38.5,27 38.5,28.7 36.8,28.7 		"/>
		<polygon id="_307575664" class="st7" points="36.8,30.4 38.5,30.4 38.5,32.1 36.8,32.1 		"/>
		<polygon id="_307575496" class="st7" points="36.8,33.8 38.5,33.8 38.5,35.5 36.8,35.5 		"/>
		<polygon id="_307575328" class="st7" points="40.2,20.2 41.9,20.2 41.9,21.9 40.2,21.9 		"/>
		<polygon id="_307575160" class="st7" points="40.2,23.6 41.9,23.6 41.9,25.3 40.2,25.3 		"/>
		<polygon id="_307574992" class="st7" points="40.2,27 41.9,27 41.9,28.7 40.2,28.7 		"/>
		<polygon id="_307574824" class="st7" points="40.2,30.4 41.9,30.4 41.9,32.1 40.2,32.1 		"/>
		<polygon id="_307574656" class="st7" points="30,33.8 31.7,33.8 31.7,35.5 30,35.5 		"/>
		<polygon id="_307574488" class="st7" points="30,37.2 31.7,37.2 31.7,38.9 30,38.9 		"/>
		<polygon id="_307574320" class="st7" points="30,40.6 31.7,40.6 31.7,42.3 30,42.3 		"/>
		<polygon id="_307574152" class="st7" points="40.2,33.8 41.9,33.8 41.9,35.5 40.2,35.5 		"/>
		<polygon id="_307573984" class="st7" points="40.2,37.2 41.9,37.2 41.9,38.9 40.2,38.9 		"/>
		<polygon id="_307573816" class="st7" points="40.2,40.6 41.9,40.6 41.9,42.3 40.2,42.3 		"/>
		<polygon id="_307573648" class="st7" points="33.4,13.4 35.1,13.4 35.1,15.1 33.4,15.1 		"/>
		<polygon id="_307573480" class="st7" points="36.8,13.4 38.5,13.4 38.5,15.1 36.8,15.1 		"/>
		<polygon id="_307573312" class="st7" points="40.2,13.4 41.9,13.4 41.9,15.1 40.2,15.1 		"/>
		<polygon id="_307573144" class="st7" points="36.8,10 38.5,10 38.5,11.7 36.8,11.7 		"/>
		<polygon id="_307572976" class="st7" points="40.2,10 41.9,10 41.9,11.7 40.2,11.7 		"/>
		<polygon id="_307572808" class="st7" points="30,16.8 31.7,16.8 31.7,18.5 30,18.5 		"/>
	</g>
	<rect x="-3.9" y="-3" class="st8" width="56.7" height="56.7"/>
</g>
</svg>
